<?xml version="1.0" encoding="UTF-8" standalone="no"?>
<!-- Created with Inkscape (http://www.inkscape.org/) -->

<svg
   height="256"
   id="svg3895"
   inkscape:output_extension="org.inkscape.output.svg.inkscape"
   inkscape:version="1.3 (0e150ed6c4, 2023-07-21)"
   sodipodi:docname="applemac-os-logo.svg"
   sodipodi:version="0.32"
   version="1.0"
   width="256"
   xmlns:inkscape="http://www.inkscape.org/namespaces/inkscape"
   xmlns:sodipodi="http://sodipodi.sourceforge.net/DTD/sodipodi-0.dtd"
   xmlns:xlink="http://www.w3.org/1999/xlink"
   xmlns="http://www.w3.org/2000/svg"
   xmlns:svg="http://www.w3.org/2000/svg"
   xmlns:rdf="http://www.w3.org/1999/02/22-rdf-syntax-ns#"
   xmlns:cc="http://creativecommons.org/ns#"
   xmlns:dc="http://purl.org/dc/elements/1.1/">
  <metadata
     id="metadata3609">
    <rdf:RDF>
      <cc:Work
         rdf:about="">
        <dc:description />
        <dc:subject>
          <rdf:Bag>
            <rdf:li>unsorted</rdf:li>
          </rdf:Bag>
        </dc:subject>
        <dc:publisher>
          <cc:Agent
             rdf:about="http://www.openclipart.org/">
            <dc:title>Open Clip Art Library, Source: Open Icon Library</dc:title>
          </cc:Agent>
        </dc:publisher>
        <dc:creator>
          <cc:Agent>
            <dc:title />
          </cc:Agent>
        </dc:creator>
        <dc:rights>
          <cc:Agent>
            <dc:title />
          </cc:Agent>
        </dc:rights>
        <dc:date />
        <dc:format>image/svg+xml</dc:format>
        <dc:type
           rdf:resource="http://purl.org/dc/dcmitype/StillImage" />
        <cc:license
           rdf:resource="http://web.resource.org/cc/PublicDomain" />
        <dc:language>en</dc:language>
      </cc:Work>
      <cc:License
         rdf:about="http://web.resource.org/cc/PublicDomain">
        <cc:permits
           rdf:resource="http://web.resource.org/cc/Reproduction" />
        <cc:permits
           rdf:resource="http://web.resource.org/cc/Distribution" />
        <cc:permits
           rdf:resource="http://web.resource.org/cc/DerivativeWorks" />
      </cc:License>
    </rdf:RDF>
  </metadata>
  <defs
     id="defs3897">
    <linearGradient
       id="linearGradient4568">
      <stop
         id="stop4570"
         offset="0"
         style="stop-color:#e1e0df;stop-opacity:0.49803922;" />
      <stop
         id="stop4572"
         offset="0"
         style="stop-color:#e1e0df;stop-opacity:0.74901961;" />
      <stop
         id="stop4574"
         offset="0"
         style="stop-color:#e1e0df;stop-opacity:1;" />
      <stop
         id="stop4576"
         offset="1"
         style="stop-color:#e1e0df;stop-opacity:0;" />
    </linearGradient>
    <linearGradient
       id="linearGradient4510">
      <stop
         id="stop4514"
         offset="0"
         style="stop-color:#e1e0df;stop-opacity:0.49803922;" />
      <stop
         id="stop4536"
         offset="0"
         style="stop-color:#697c8b;stop-opacity:1;" />
      <stop
         id="stop4602"
         offset="0"
         style="stop-color:#a5aeb5;stop-opacity:1;" />
      <stop
         id="stop4534"
         offset="0"
         style="stop-color:#e1e0df;stop-opacity:1;" />
      <stop
         id="stop4516"
         offset="1"
         style="stop-color:#e1e0df;stop-opacity:0;" />
    </linearGradient>
    <linearGradient
       id="linearGradient4502">
      <stop
         id="stop4504"
         offset="0"
         style="stop-color:#dde0df;stop-opacity:0.94845361;" />
      <stop
         id="stop4508"
         offset="0.5"
         style="stop-color:#e1e0df;stop-opacity:0.49803922;" />
      <stop
         id="stop4506"
         offset="1"
         style="stop-color:#e1e0df;stop-opacity:0;" />
    </linearGradient>
    <inkscape:perspective
       id="perspective3903"
       inkscape:persp3d-origin="372.04724 : 350.78739 : 1"
       inkscape:vp_x="0 : 526.18109 : 1"
       inkscape:vp_y="0 : 1000 : 0"
       inkscape:vp_z="744.09448 : 526.18109 : 1"
       sodipodi:type="inkscape:persp3d" />
    <inkscape:perspective
       id="perspective3969"
       inkscape:persp3d-origin="372.04724 : 350.78739 : 1"
       inkscape:vp_x="0 : 526.18109 : 1"
       inkscape:vp_y="0 : 1000 : 0"
       inkscape:vp_z="744.09448 : 526.18109 : 1"
       sodipodi:type="inkscape:persp3d" />
    <linearGradient
       gradientUnits="userSpaceOnUse"
       id="linearGradient4500"
       inkscape:collect="always"
       spreadMethod="pad"
       x1="31.982189"
       x2="233.75533"
       xlink:href="#linearGradient4510"
       y1="127.3456"
       y2="127.3456" />
    <linearGradient
       gradientUnits="userSpaceOnUse"
       id="linearGradient4532"
       inkscape:collect="always"
       spreadMethod="pad"
       x1="218.19295"
       x2="190.91884"
       xlink:href="#linearGradient4568"
       y1="219.63451"
       y2="201.45177" />
    <linearGradient
       gradientUnits="userSpaceOnUse"
       id="linearGradient4566"
       inkscape:collect="always"
       spreadMethod="pad"
       x1="160.61426"
       x2="150.51273"
       xlink:href="#linearGradient4510"
       y1="49.928883"
       y2="30.566313" />
    <linearGradient
       gradientUnits="userSpaceOnUse"
       id="linearGradient4584"
       inkscape:collect="always"
       spreadMethod="pad"
       x1="165.66502"
       x2="152.53304"
       xlink:href="#linearGradient4568"
       y1="246.90863"
       y2="213.57359" />
    <linearGradient
       gradientUnits="userSpaceOnUse"
       id="linearGradient4586"
       inkscape:collect="always"
       spreadMethod="pad"
       x1="220.21326"
       x2="51.51778"
       xlink:href="#linearGradient4510"
       y1="213.57359"
       y2="85.284218" />
    <linearGradient
       gradientUnits="userSpaceOnUse"
       id="linearGradient4588"
       inkscape:collect="always"
       spreadMethod="pad"
       x1="220.21326"
       x2="51.51778"
       xlink:href="#linearGradient4510"
       y1="213.57359"
       y2="85.284218" />
    <linearGradient
       gradientUnits="userSpaceOnUse"
       id="linearGradient4590"
       inkscape:collect="always"
       spreadMethod="pad"
       x1="220.21326"
       x2="51.51778"
       xlink:href="#linearGradient4510"
       y1="213.57359"
       y2="85.284218" />
    <linearGradient
       gradientTransform="translate(-6.0609153,1.0101525)"
       gradientUnits="userSpaceOnUse"
       id="linearGradient4596"
       inkscape:collect="always"
       spreadMethod="pad"
       x1="188.89853"
       x2="140.41121"
       xlink:href="#linearGradient4510"
       y1="247.91878"
       y2="173.1675" />
    <linearGradient
       gradientTransform="translate(-6.0609153,1.0101525)"
       gradientUnits="userSpaceOnUse"
       id="linearGradient4600"
       inkscape:collect="always"
       spreadMethod="pad"
       x1="147.48227"
       x2="139.40105"
       xlink:href="#linearGradient4510"
       y1="55.989796"
       y2="43.867966" />
  </defs>
  <sodipodi:namedview
     bordercolor="#666666"
     borderopacity="1.0"
     gridtolerance="10000"
     guidetolerance="10"
     id="base"
     inkscape:current-layer="layer1"
     inkscape:cx="156.06857"
     inkscape:cy="129.29953"
     inkscape:document-units="px"
     inkscape:guide-bbox="true"
     inkscape:pageopacity="0.0"
     inkscape:pageshadow="2"
     inkscape:window-height="860"
     inkscape:window-width="1350"
     inkscape:window-x="130"
     inkscape:window-y="0"
     inkscape:zoom="0.98994949"
     objecttolerance="10"
     pagecolor="#ffffff"
     showgrid="false"
     showguides="true"
     inkscape:showpageshadow="2"
     inkscape:pagecheckerboard="0"
     inkscape:deskcolor="#d1d1d1"
     inkscape:window-maximized="0" />
  <g
     id="layer1"
     inkscape:groupmode="layer"
     inkscape:label="Layer 1">
    <g
       id="g3645">
      <path
         style="fill:#f3f3f3;fill-opacity:1;fill-rule:nonzero;stroke:#939494;stroke-width:1px;stroke-linecap:butt;stroke-linejoin:miter;stroke-opacity:1"
         sodipodi:nodetypes="cccccccccccccccccccccccccccccccccccccccccc"
         id="path3975"
         d="M 226.79135,189.08626 C 227.80358,185.16927 226.7883,183.78662 225.08965,183.25819 C 216.14673,177.74046 210.1841,171.54315 203.86599,162.37813 C 198.77841,151.73365 196.05782,148.41581 196.42386,133.4132 C 196.08202,126.18293 196.97833,118.95267 200.03904,111.7224 C 203.64412,104.30381 206.94096,98.059984 213.73286,93.734449 L 220.24018,87.950235 C 221.81237,86.764393 221.81052,84.408095 221.00707,82.80133 C 215.33474,76.938527 210.75035,70.920308 200.5503,65.704316 C 196.41797,63.311784 190.18099,61.460321 181.96315,61.110526 C 176.1616,61.113166 170.53309,60.942777 163.41986,62.257091 C 157.72078,63.185008 151.76608,65.118958 146.067,68.041306 L 137.85798,71.955928 C 132.65144,73.230874 127.92487,72.585946 123.39727,71.145182 L 108.21352,64.72566 C 102.92915,62.779692 96.743365,61.735146 89.414599,61.833552 C 82.179889,61.811781 75.0102,62.115112 68.446568,65.448687 C 63.243309,67.957777 58.509779,70.936588 53.985856,74.125008 C 48.624113,79.126713 43.535059,84.401106 39.525145,90.754625 C 36.436445,94.744128 34.248635,101.18064 31.827385,107.17247 C 29.616529,113.16975 28.604534,117.60888 27.700944,123.0352 C 26.118101,133.52725 26.307028,139.89827 26.678417,147.87374 C 27.459233,161.52735 29.412896,166.49468 30.848718,174.62573 C 32.57736,181.53187 34.960933,187.12817 37.356038,192.7014 C 39.789469,199.43799 43.73769,205.4172 47.478536,211.50009 C 50.770224,217.81917 55.914273,224.75569 61.216212,231.74484 C 65.79814,236.80739 67.922116,240.64096 76.65559,246.88456 C 82.512633,250.5432 83.377833,251.2551 86.522457,252.71263 C 89.417155,253.4331 92.410619,254.05479 96.644955,253.43565 C 99.397485,252.85223 101.97985,252.43898 106.04441,250.54354 C 108.93655,249.33849 111.8287,248.13346 114.72084,246.92841 C 117.95444,245.48235 121.12382,244.0363 127.01244,242.59025 C 130.86864,242.08417 134.72482,241.69836 138.58102,241.86722 C 141.00515,241.82743 145.04028,242.75422 150.87261,244.75932 C 154.49875,245.97167 156.48606,246.09148 163.88726,249.82051 C 167.02749,250.84067 169.02988,252.6194 174.00976,252.41314 C 178.79498,251.75492 183.31517,250.06479 186.76876,248.07498 C 190.58363,245.28272 195.08066,243.17262 197.65816,239.14303 C 200.77099,236.2404 202.59999,233.97969 204.37725,231.74484 L 213.05367,218.73037 C 215.83469,215.41886 218.35181,211.57957 220.45194,206.90631 C 222.98613,201.38734 224.9295,195.27755 226.79135,189.08626 z" />
      <path
         style="fill:#f9f9f9;fill-opacity:1;fill-rule:nonzero;stroke:#939494;stroke-width:1px;stroke-linecap:butt;stroke-linejoin:miter;stroke-opacity:1"
         sodipodi:nodetypes="cccccccccccccccccccc"
         id="path4486"
         d="M 126.62899,57.623206 C 126.70519,60.512968 128.52419,59.649994 129.54306,60.025985 C 133.37626,60.460634 135.25637,59.430484 137.85798,58.941445 C 142.89025,57.499014 144.83081,56.443041 147.25744,55.32631 C 150.02908,53.677375 152.80071,52.488445 155.57235,49.90361 C 158.1866,48.003414 159.84541,46.381209 162.07967,43.757883 C 165.03594,40.720352 166.02579,39.285406 168.22547,36.166101 C 170.67214,32.599106 171.84065,30.225228 173.64824,26.40524 C 174.86037,23.335916 176.32254,20.391601 176.9019,17.00589 C 177.54181,13.951721 178.35268,10.983022 178.34797,7.6065432 C 178.55126,5.9571962 178.08673,4.9756749 177.62493,3.9914092 C 175.79865,2.9137576 174.85777,2.9491678 172.7316,3.1004718 C 170.24254,3.1111173 167.05612,3.4939366 163.52574,5.0759494 C 159.63758,6.8622085 155.91818,8.7609624 153.04172,11.221677 C 149.96874,13.149749 147.88543,15.07782 145.81137,17.00589 C 143.29274,19.307468 141.13138,21.966321 138.94253,24.597672 C 136.45165,27.570221 134.50785,30.150375 133.37002,32.784667 C 131.83427,35.719378 130.76752,38.654089 129.54306,41.588802 C 128.24309,44.720723 127.24745,48.004808 126.62899,51.477477 C 126.27245,53.644897 126.36496,55.151381 126.62899,57.623206 z" />
      <path
         style="fill:url(#linearGradient4600);fill-opacity:1;fill-rule:nonzero;stroke:#939494;stroke-width:1px;stroke-linecap:butt;stroke-linejoin:miter;stroke-opacity:1"
         sodipodi:nodetypes="cccccccccccccccccccc"
         id="path4598"
         d="M 126.62899,57.623206 C 126.70519,60.512968 128.52419,59.649994 129.54306,60.025985 C 133.37626,60.460634 135.25637,59.430484 137.85798,58.941445 C 142.89025,57.499014 144.83081,56.443041 147.25744,55.32631 C 150.02908,53.677375 152.80071,52.488445 155.57235,49.90361 C 158.1866,48.003414 159.84541,46.381209 162.07967,43.757883 C 165.03594,40.720352 166.02579,39.285406 168.22547,36.166101 C 170.67214,32.599106 171.84065,30.225228 173.64824,26.40524 C 174.86037,23.335916 176.32254,20.391601 176.9019,17.00589 C 177.54181,13.951721 178.35268,10.983022 178.34797,7.6065432 C 178.55126,5.9571962 178.08673,4.9756749 177.62493,3.9914092 C 175.79865,2.9137576 174.85777,2.9491678 172.7316,3.1004718 C 170.24254,3.1111173 167.05612,3.4939366 163.52574,5.0759494 C 159.63758,6.8622085 155.91818,8.7609624 153.04172,11.221677 C 149.96874,13.149749 147.88543,15.07782 145.81137,17.00589 C 143.29274,19.307468 141.13138,21.966321 138.94253,24.597672 C 136.45165,27.570221 134.50785,30.150375 133.37002,32.784667 C 131.83427,35.719378 130.76752,38.654089 129.54306,41.588802 C 128.24309,44.720723 127.24745,48.004808 126.62899,51.477477 C 126.27245,53.644897 126.36496,55.151381 126.62899,57.623206 z" />
      <path
         style="fill:url(#linearGradient4596);fill-opacity:1;fill-rule:nonzero;stroke:#939494;stroke-width:1px;stroke-linecap:butt;stroke-linejoin:miter;stroke-opacity:1"
         sodipodi:nodetypes="cccccccccccccccccccccccccccccccccccccccccc"
         id="path2408"
         d="M 226.79135,189.08626 C 227.80358,185.16927 226.7883,183.78662 225.08965,183.25819 C 216.14673,177.74046 210.1841,171.54315 203.86599,162.37813 C 198.77841,151.73365 196.05782,148.41581 196.42386,133.4132 C 196.08202,126.18293 196.97833,118.95267 200.03904,111.7224 C 203.64412,104.30381 206.94096,98.059984 213.73286,93.734449 L 220.24018,87.950235 C 221.81237,86.764393 221.81052,84.408095 221.00707,82.80133 C 215.33474,76.938527 210.75035,70.920308 200.5503,65.704316 C 196.41797,63.311784 190.18099,61.460321 181.96315,61.110526 C 176.1616,61.113166 170.53309,60.942777 163.41986,62.257091 C 157.72078,63.185008 151.76608,65.118958 146.067,68.041306 L 137.85798,71.955928 C 132.65144,73.230874 127.92487,72.585946 123.39727,71.145182 L 108.21352,64.72566 C 102.92915,62.779692 96.743365,61.735146 89.414599,61.833552 C 82.179889,61.811781 75.0102,62.115112 68.446568,65.448687 C 63.243309,67.957777 58.509779,70.936588 53.985856,74.125008 C 48.624113,79.126713 43.535059,84.401106 39.525145,90.754625 C 36.436445,94.744128 34.248635,101.18064 31.827385,107.17247 C 29.616529,113.16975 28.604534,117.60888 27.700944,123.0352 C 26.118101,133.52725 26.307028,139.89827 26.678417,147.87374 C 27.459233,161.52735 29.412896,166.49468 30.848718,174.62573 C 32.57736,181.53187 34.960933,187.12817 37.356038,192.7014 C 39.789469,199.43799 43.73769,205.4172 47.478536,211.50009 C 50.770224,217.81917 55.914273,224.75569 61.216212,231.74484 C 65.79814,236.80739 67.922116,240.64096 76.65559,246.88456 C 82.512633,250.5432 83.377833,251.2551 86.522457,252.71263 C 89.417155,253.4331 92.410619,254.05479 96.644955,253.43565 C 99.397485,252.85223 101.97985,252.43898 106.04441,250.54354 C 108.93655,249.33849 111.8287,248.13346 114.72084,246.92841 C 117.95444,245.48235 121.12382,244.0363 127.01244,242.59025 C 130.86864,242.08417 134.72482,241.69836 138.58102,241.86722 C 141.00515,241.82743 145.04028,242.75422 150.87261,244.75932 C 154.49875,245.97167 156.48606,246.09148 163.88726,249.82051 C 167.02749,250.84067 169.02988,252.6194 174.00976,252.41314 C 178.79498,251.75492 183.31517,250.06479 186.76876,248.07498 C 190.58363,245.28272 195.08066,243.17262 197.65816,239.14303 C 200.77099,236.2404 202.59999,233.97969 204.37725,231.74484 L 213.05367,218.73037 C 215.83469,215.41886 218.35181,211.57957 220.45194,206.90631 C 222.98613,201.38734 224.9295,195.27755 226.79135,189.08626 z" />
      <path
         style="fill:url(#linearGradient4600);fill-opacity:1;fill-rule:nonzero;stroke:#939494;stroke-width:1px;stroke-linecap:butt;stroke-linejoin:miter;stroke-opacity:1"
         sodipodi:nodetypes="cccccccccccccccccccc"
         id="path3180"
         d="M 126.62899,57.623206 C 126.70519,60.512968 128.52419,59.649994 129.54306,60.025985 C 133.37626,60.460634 135.25637,59.430484 137.85798,58.941445 C 142.89025,57.499014 144.83081,56.443041 147.25744,55.32631 C 150.02908,53.677375 152.80071,52.488445 155.57235,49.90361 C 158.1866,48.003414 159.84541,46.381209 162.07967,43.757883 C 165.03594,40.720352 166.02579,39.285406 168.22547,36.166101 C 170.67214,32.599106 171.84065,30.225228 173.64824,26.40524 C 174.86037,23.335916 176.32254,20.391601 176.9019,17.00589 C 177.54181,13.951721 178.35268,10.983022 178.34797,7.6065432 C 178.55126,5.9571962 178.08673,4.9756749 177.62493,3.9914092 C 175.79865,2.9137576 174.85777,2.9491678 172.7316,3.1004718 C 170.24254,3.1111173 167.05612,3.4939366 163.52574,5.0759494 C 159.63758,6.8622085 155.91818,8.7609624 153.04172,11.221677 C 149.96874,13.149749 147.88543,15.07782 145.81137,17.00589 C 143.29274,19.307468 141.13138,21.966321 138.94253,24.597672 C 136.45165,27.570221 134.50785,30.150375 133.37002,32.784667 C 131.83427,35.719378 130.76752,38.654089 129.54306,41.588802 C 128.24309,44.720723 127.24745,48.004808 126.62899,51.477477 C 126.27245,53.644897 126.36496,55.151381 126.62899,57.623206 z" />
    </g>
    <path
       d="m 130.63878,116.54259 h 0.0951 v 3.30142 h 3.75717 v -13.63632 c 0,-1.00479 -0.19023,-1.86602 -0.57071,-2.67942 -0.38047,-0.81339 -0.90362,-1.48326 -1.61701,-2.05741 -0.71338,-0.57417 -1.52189,-1.00479 -2.52064,-1.29186 -0.99874,-0.287083 -2.04504,-0.478473 -3.28158,-0.478473 -1.09386,0 -2.14016,0.14354 -3.09134,0.478473 -0.95119,0.28707 -1.75969,0.71769 -2.47308,1.29186 -0.71339,0.57415 -1.23654,1.19617 -1.66457,1.96172 -0.42803,0.76555 -0.61827,1.57894 -0.66583,2.44019 h 3.70961 c 0.0951,-0.43063 0.2378,-0.8134 0.47559,-1.14833 0.2378,-0.33492 0.52316,-0.66986 0.85607,-0.90909 0.33292,-0.23923 0.76095,-0.43062 1.23654,-0.57417 0.47559,-0.14353 0.95118,-0.19137 1.47433,-0.19137 1.33166,0 2.3304,0.28707 3.09135,0.90909 0.71338,0.57415 1.09386,1.48324 1.09386,2.63156 v 1.5311 l -5.32662,0.28708 c -2.47308,0.14354 -4.32789,0.71771 -5.61199,1.72249 -1.28409,1.00477 -1.94992,2.34449 -1.94992,4.11482 0,0.90908 0.14268,1.72247 0.47559,2.44018 0.33292,0.7177 0.80851,1.33971 1.37922,1.86603 0.5707,0.5263 1.28409,0.90908 2.0926,1.19617 0.8085,0.28708 1.71213,0.43062 2.71087,0.43062 0.66583,0 1.33166,-0.0957 1.94992,-0.23924 0.61828,-0.14353 1.23654,-0.38277 1.75969,-0.7177 0.52316,-0.28708 0.99875,-0.66985 1.47434,-1.10047 0.47559,-0.57417 0.85607,-1.05264 1.14142,-1.57895 z m -1.52189,-0.95694 c -0.47559,0.38277 -0.99874,0.7177 -1.61702,0.95694 -0.61826,0.23923 -1.33165,0.33493 -2.04504,0.33493 -1.14142,0 -2.04504,-0.23923 -2.71087,-0.76555 -0.66583,-0.52632 -0.99874,-1.19617 -0.99874,-2.05741 0,-0.86124 0.33291,-1.57894 1.04629,-2.05742 0.66584,-0.47845 1.71213,-0.76554 3.09135,-0.86124 l 4.80348,-0.33492 v 1.53109 c 0,0.66986 -0.14268,1.24402 -0.38047,1.81819 -0.38048,0.57415 -0.71339,1.05262 -1.18898,1.43539 z"
       fill="#515151"
       id="path5"
       style="stroke-width:0.477027" />
    <path
       d="m 156.70121,160.03529 -6.51561,-1.62678 c -7.94239,-2.00957 -11.22396,-4.64114 -11.22396,-9.04304 0,-5.59807 5.18395,-9.47366 12.69829,-9.47366 7.51436,0 12.60318,3.82774 13.1739,10.04782 h 8.51309 c -0.33291,-10.33491 -9.03625,-17.55976 -21.49675,-17.55976 -12.74586,0 -21.73454,7.177 -21.73454,17.46407 0,8.37318 5.04127,13.49278 16.21768,16.26789 l 7.75214,1.91388 c 7.94238,2.00955 11.36664,4.97606 11.36664,9.85643 0,5.64591 -5.65954,9.76073 -13.5068,9.76073 -8.18018,0 -14.17263,-4.11482 -14.83846,-10.38274 h -8.56065 c 0.61827,10.90906 9.60695,17.84684 22.78084,17.84684 14.12507,0 23.01864,-7.03347 23.01864,-18.32531 -0.14268,-8.8038 -5.23151,-13.73202 -17.64445,-16.74637 z"
       fill="#515151"
       id="path6"
       style="stroke-width:0.477027" />
    <path
       d="m 113.51748,119.84401 v -13.54063 c 0,-1.00478 -0.14267,-1.91386 -0.47559,-2.67942 -0.33292,-0.76555 -0.71339,-1.48325 -1.2841,-2.05741 -0.5707,-0.57416 -1.23654,-1.00478 -2.04504,-1.3397 -0.80851,-0.334933 -1.66457,-0.478483 -2.66331,-0.478483 -0.7134,0 -1.37922,0.0957 -1.99749,0.287083 -0.61827,0.1914 -1.23654,0.43062 -1.75969,0.76556 -0.52315,0.33493 -0.99874,0.76554 -1.42678,1.19617 -0.42803,0.43061 -0.76095,1.00477 -0.99874,1.62678 h -0.0951 c -0.38047,-1.24401 -1.093863,-2.20095 -2.045047,-2.8708 -0.951183,-0.66986 -2.140162,-1.004793 -3.519378,-1.004793 -0.61827,0 -1.236539,0.0957 -1.854808,0.23924 -0.57071,0.143533 -1.093861,0.382773 -1.617012,0.717703 -0.475592,0.33493 -0.903624,0.66986 -1.284098,1.14832 -0.380472,0.43063 -0.665828,0.95695 -0.903624,1.48325 h -0.09512 v -3.349273 h -3.757171 v 19.904253 h 3.709616 v -12.20092 c 0,-0.62201 0.332914,-1.24402 0.52315,-1.77033 0.190238,-0.52632 0.475592,-1.00479 0.856066,-1.4354 0.380473,-0.38278 0.808506,-0.71771 1.331657,-0.95694 0.52315,-0.23924 1.09386,-0.33492 1.664571,-0.33492 0.57071,0 1.093861,0.0957 1.569452,0.28707 0.475592,0.19139 0.856066,0.43063 1.18898,0.76555 0.332913,0.33493 0.57071,0.71771 0.760946,1.19617 0.190237,0.47847 0.285356,1.00478 0.285356,1.5311 v 12.91862 h 3.899854 v -12.34445 c 0,-0.62202 0.0951,-1.24403 0.33291,-1.77034 0.19024,-0.52632 0.4756,-1.00478 0.85607,-1.38755 0.38048,-0.38279 0.80851,-0.66987 1.2841,-0.9091 0.52315,-0.19139 1.0463,-0.33492 1.66457,-0.33492 1.23654,0 2.18772,0.38277 2.85355,1.05263 0.66583,0.71769 0.99875,1.72248 0.99875,3.01434 v 12.58371 z"
       fill="#515151"
       id="path7"
       style="stroke-width:0.477027" />
    <path
       d="m 94.351132,132.37987 c -17.26398,0 -28.107471,12.10523 -28.107471,31.38747 0,19.28225 10.843491,31.38748 28.107471,31.38748 17.263988,0 28.107468,-12.10523 28.107468,-31.38748 -0.0476,-19.28224 -10.84348,-31.38747 -28.107468,-31.38747 z m 0,55.02378 c -11.842234,0 -19.261465,-9.13874 -19.261465,-23.63631 0,-14.54542 7.419231,-23.68415 19.261465,-23.68415 11.794678,0 19.261468,9.13873 19.261468,23.68415 -0.0476,14.49757 -7.46679,23.63631 -19.261468,23.63631 z"
       class="st1"
       style="fill:#515151;stroke-width:0.477027"
       id="path8" />
    <path
       id="path25"
       d="m 144.14559,104.91582 c 0.47559,-0.57415 0.99874,-1.05262 1.66457,-1.38755 0.66582,-0.33492 1.37921,-0.47846 2.18772,-0.47846 0.66582,0 1.2841,0.0957 1.80725,0.28707 0.52315,0.19139 0.99874,0.43062 1.42677,0.76555 0.38047,0.33493 0.71339,0.7177 0.95118,1.19617 0.2378,0.47847 0.42803,0.95694 0.52316,1.48326 h 3.75717 c -0.0951,-0.95694 -0.33291,-1.86604 -0.76094,-2.72728 -0.42804,-0.86123 -0.99875,-1.57894 -1.71213,-2.2488 -0.71339,-0.622 -1.61702,-1.14832 -2.61576,-1.53109 -0.99875,-0.382773 -2.14016,-0.574163 -3.42426,-0.574163 -1.37922,0 -2.66332,0.23924 -3.80473,0.717693 -1.14143,0.47847 -2.09261,1.14833 -2.90112,2.05742 -0.8085,0.90909 -1.42677,1.96172 -1.8548,3.20573 -0.42803,1.24402 -0.66583,2.63158 -0.66583,4.21053 0,1.57894 0.2378,3.01434 0.66583,4.25836 0.42803,1.24401 1.09386,2.34448 1.90236,3.20573 0.80851,0.86124 1.80725,1.53109 2.94867,2.00956 1.14143,0.47846 2.42552,0.7177 3.80474,0.7177 1.18898,0 2.28284,-0.19139 3.28158,-0.47847 0.99875,-0.28708 1.85481,-0.81339 2.61575,-1.38755 0.71339,-0.62201 1.33166,-1.33971 1.80726,-2.20096 0.47559,-0.86124 0.76094,-1.81817 0.85606,-2.82295 h -3.75718 c -0.2378,1.19617 -0.76095,2.05741 -1.56945,2.67941 -0.80851,0.62201 -1.85481,0.90909 -3.13891,0.90909 -0.8085,0 -1.52189,-0.14353 -2.18772,-0.47847 -0.66583,-0.28708 -1.23654,-0.76554 -1.66457,-1.3397 -0.47559,-0.57416 -0.80851,-1.29187 -1.09386,-2.15311 -0.23779,-0.86124 -0.38047,-1.81817 -0.38047,-2.87081 0,-1.05262 0.14268,-1.96172 0.38047,-2.82295 0.14268,-0.90909 0.4756,-1.62679 0.95119,-2.20096 z"
       fill="#515151"
       style="stroke-width:0.477027" />
  </g>
</svg>
