<?xml version="1.0" encoding="iso-8859-1"?>
<!-- Uploaded to: SVG Repo, www.svgrepo.com, Generator: SVG Repo Mixer Tools -->
<svg fill="#000000" version="1.1" id="Layer_1" xmlns="http://www.w3.org/2000/svg" xmlns:xlink="http://www.w3.org/1999/xlink" 
	 viewBox="0 0 472.615 472.615" xml:space="preserve">
<g>
	<g>
		<rect x="193.339" y="157.538" width="204.081" height="21.484"/>
	</g>
</g>
<g>
	<g>
		<rect x="193.339" y="383.104" width="139.638" height="50.127"/>
	</g>
</g>
<g>
	<g>
		<polygon points="0,39.385 0,254.21 171.86,254.21 171.86,136.057 375.944,136.057 375.944,39.385 		"/>
	</g>
</g>
<g>
	<g>
		<rect y="275.692" width="171.865" height="42.969"/>
	</g>
</g>
<g>
	<g>
		<polygon points="128.895,340.141 128.895,361.623 95.841,361.623 95.841,383.105 128.895,383.105 171.86,383.105 171.86,340.141 
					"/>
	</g>
</g>
<g>
	<g>
		<polygon points="193.343,200.505 193.343,361.623 332.979,361.623 332.979,221.987 397.426,221.987 397.426,200.505 		"/>
	</g>
</g>
<g>
	<g>
		<rect x="354.462" y="404.578" width="118.154" height="28.642"/>
	</g>
</g>
<g>
	<g>
		<rect x="354.462" y="243.465" width="118.154" height="21.484"/>
	</g>
</g>
<g>
	<g>
		<rect x="354.462" y="286.424" width="118.154" height="96.67"/>
	</g>
</g>
</svg>