<svg width="564" height="65" viewBox="0 0 564 65" fill="none" xmlns="http://www.w3.org/2000/svg">
<g clip-path="url(#clip0_9764_469)">
<path d="M17.4403 48.4265C17.4403 51.1269 17.5507 53.2597 17.7659 54.8248C17.9812 56.3899 18.4006 57.6079 19.0243 58.4676C19.6479 59.3329 20.5365 59.9005 21.701 60.1705C22.8655 60.4406 24.3888 60.6059 26.2874 60.6555V63.7362H0V60.6555C1.89304 60.6004 3.42183 60.424 4.58636 60.1264C5.75088 59.8289 6.65601 59.2777 7.30174 58.4676C7.95299 57.6575 8.38348 56.5112 8.59873 55.0232C8.81397 53.5407 8.92435 51.5292 8.92435 48.9886V16.0985C8.92435 13.828 8.83053 11.9542 8.64288 10.4662C8.45523 8.98376 8.07441 7.80439 7.50595 6.94467C6.93748 6.07943 6.11514 5.47321 5.0334 5.1205C3.95166 4.76779 2.5443 4.54184 0.816824 4.43162V1.35645H25.4816V4.43713C23.7486 4.49224 22.3578 4.70717 21.3036 5.08744C20.2495 5.4677 19.4382 6.10147 18.8697 6.98875C18.3013 7.88155 17.9205 9.11051 17.7328 10.6757C17.5452 12.2408 17.4513 14.2413 17.4513 16.6717V48.4265H17.4403Z" fill="#1E1E1E"/>
<path d="M51.1099 50.8568C51.1099 52.9125 51.2203 54.5823 51.4355 55.8774C51.6507 57.1725 52.0868 58.1755 52.7325 58.8754C53.3837 59.5753 54.2723 60.0493 55.4092 60.2918C56.5462 60.5343 58.0584 60.6555 59.9514 60.6555V63.7362H33.6641V60.6555C35.5571 60.6555 37.0859 60.5343 38.2504 60.2918C39.4149 60.0493 40.3201 59.5919 40.9658 58.914C41.6171 58.2417 42.0475 57.2938 42.2628 56.0758C42.478 54.8579 42.5884 53.3093 42.5884 51.419V13.6682C42.5884 11.618 42.467 9.98126 42.2242 8.76883C41.9813 7.55088 41.5453 6.61951 40.9272 5.97472C40.3035 5.32441 39.4812 4.91108 38.4546 4.7182C37.4281 4.53082 36.1035 4.43713 34.4809 4.43713V1.35645H59.1456V4.43713C57.523 4.43713 56.1985 4.54735 55.1719 4.76228C54.1454 4.97722 53.3175 5.44014 52.6994 6.14005C52.0757 6.83996 51.6563 7.82644 51.441 9.09949C51.2258 10.367 51.1154 12.0865 51.1154 14.2413V34.252L71.398 9.86553C72.4797 8.51532 73.0206 7.46271 73.0206 6.70769C73.0206 5.19766 71.4808 4.43713 68.3956 4.43713V1.35645H87.9497V4.35446C86.868 4.35446 85.9187 4.4206 85.1074 4.55837C84.2961 4.69615 83.4958 4.97722 82.7121 5.40708C81.9284 5.84245 81.1005 6.45969 80.2396 7.26982C79.3731 8.07995 78.3741 9.13256 77.2372 10.4277L61.9825 28.008L85.6703 56.4451C87.0225 58.0102 88.2919 59.1069 89.484 59.7241C90.6706 60.3469 92.2712 60.6555 94.2691 60.6555V63.7362H69.3615V60.6555C71.4698 60.6555 72.982 60.4792 73.9037 60.1264C74.8254 59.7737 75.2834 59.2226 75.2834 58.4676C75.2834 58.0378 75.0682 57.415 74.6322 56.6049C74.1962 55.7948 73.4953 54.7972 72.5239 53.6069L56.7007 34.1638L51.1044 40.6448V50.8513L51.1099 50.8568Z" fill="#1E1E1E"/>
<path d="M114.311 48.4265C114.311 51.1269 114.422 53.2597 114.637 54.8248C114.852 56.3899 115.272 57.6079 115.895 58.4676C116.519 59.3329 117.408 59.9005 118.572 60.1705C119.737 60.4406 121.26 60.6059 123.158 60.6555V63.7362H96.8711V60.6555C98.7641 60.6004 100.293 60.424 101.457 60.1264C102.622 59.8289 103.527 59.2777 104.173 58.4676C104.824 57.6575 105.255 56.5112 105.47 55.0232C105.685 53.5407 105.795 51.5292 105.795 48.9886V16.0985C105.795 13.828 105.702 11.9542 105.514 10.4662C105.326 8.98376 104.946 7.80439 104.377 6.94467C103.809 6.07943 102.986 5.47321 101.904 5.1205C100.823 4.76779 99.4154 4.54184 97.6879 4.43162V1.35645H122.353V4.43713C120.62 4.49224 119.229 4.70717 118.175 5.08744C117.121 5.4677 116.309 6.10147 115.741 6.98875C115.172 7.88155 114.792 9.11051 114.604 10.6757C114.416 12.2408 114.322 14.2413 114.322 16.6717V48.4265H114.311Z" fill="#1E1E1E"/>
<path d="M171.509 49.2366L192.598 1.35645H210.772V4.43713C209.039 4.49224 207.648 4.70717 206.594 5.08744C205.54 5.4677 204.729 6.10147 204.16 6.98875C203.592 7.88155 203.211 9.11051 203.023 10.6757C202.836 12.2408 202.742 14.2413 202.742 16.6717V48.4265C202.742 51.1269 202.852 53.2597 203.068 54.8248C203.283 56.3899 203.702 57.6079 204.326 58.4676C204.95 59.3329 205.838 59.9005 207.003 60.1705C208.167 60.4406 209.69 60.6059 211.589 60.6555V63.7362H185.302V60.6555C187.195 60.6004 188.723 60.424 189.888 60.1264C191.053 59.8289 191.958 59.2777 192.603 58.4676C193.255 57.6575 193.685 56.5112 193.9 55.0232C194.116 53.5407 194.226 51.5292 194.226 48.9886V11.4031H193.415L169.727 64.5463H167.944L144.659 11.4031H144.334V48.4265C144.334 51.1269 144.444 53.2597 144.659 54.8248C144.874 56.3899 145.294 57.6079 145.918 58.4676C146.541 59.3329 147.43 59.9005 148.594 60.1705C149.759 60.4406 151.282 60.6059 153.181 60.6555V63.7362H130.547V60.6555C132.44 60.6004 133.969 60.424 135.133 60.1264C136.298 59.8289 137.203 59.2777 137.849 58.4676C138.5 57.6575 138.93 56.5112 139.146 55.0232C139.361 53.5407 139.471 51.5292 139.471 48.9886V16.0985C139.471 13.828 139.377 11.9542 139.19 10.4662C139.002 8.98376 138.621 7.80439 138.053 6.94467C137.484 6.07943 136.662 5.47321 135.58 5.1205C134.499 4.76779 133.091 4.54184 131.364 4.43162V1.35645H150.752L171.195 49.2366H171.521H171.509Z" fill="#1E1E1E"/>
<path d="M241.684 63.7362V60.6555C243.737 60.6004 245.403 60.4516 246.673 60.2091C247.942 59.9666 248.93 59.5092 249.637 58.8313C250.338 58.159 250.812 57.2387 251.055 56.0758C251.298 54.913 251.419 53.3644 251.419 51.419V13.6682C251.419 11.7779 251.325 10.2513 251.138 9.08847C250.95 7.92564 250.569 7.0108 250.001 6.33294C249.432 5.66059 248.61 5.19766 247.528 4.95517C246.447 4.71268 245.039 4.53633 243.312 4.42611V1.35645H271.79C276.658 1.35645 281.162 2.16657 285.301 3.78683C289.44 5.40708 293.006 7.65008 296.008 10.5103C299.01 13.3761 301.35 16.7764 303.028 20.7168C304.706 24.6572 305.545 28.9559 305.545 33.5962C305.545 38.2365 304.761 42.0887 303.194 45.7867C301.626 49.4846 299.419 52.659 296.582 55.3043C293.74 57.9496 290.345 60.0162 286.399 61.5042C282.453 62.9922 278.126 63.7307 273.418 63.7307H241.695L241.684 63.7362ZM261.315 5.32441C260.393 5.32441 259.935 5.78183 259.935 6.70218V50.5317C259.935 56.6875 263.964 59.7682 272.022 59.7682C279.434 59.7682 285.113 57.5693 289.059 53.166C293.006 48.7626 294.981 42.2982 294.981 33.7615C294.981 29.281 294.44 25.2855 293.359 21.7694C292.277 18.2589 290.721 15.2884 288.695 12.858C286.67 10.4277 284.219 8.56492 281.355 7.26982C278.485 5.97472 275.24 5.32441 271.619 5.32441H261.315Z" fill="#1E1E1E"/>
<path d="M347.64 41.1353H325.978C325.056 43.3508 324.273 45.3072 323.627 47.0101C322.976 48.713 322.451 50.1845 322.043 51.4245C321.64 52.67 321.353 53.7226 321.193 54.5823C321.033 55.4476 320.95 56.1475 320.95 56.6875C320.95 58.1976 321.436 59.2392 322.413 59.8068C323.384 60.3744 325.007 60.6555 327.281 60.6555V63.7362H307.566V60.6555C308.808 60.4957 309.879 60.2808 310.773 60.0052C311.667 59.7352 312.451 59.3549 313.124 58.8699C313.797 58.385 314.394 57.7512 314.907 56.9686C315.42 56.186 315.922 55.2271 316.408 54.0918L337.496 1.35645H340.984L359.402 47.0487C360.643 50.0743 361.725 52.4881 362.647 54.3013C363.569 56.1089 364.457 57.4756 365.324 58.3905C366.19 59.3108 367.123 59.906 368.122 60.1705C369.121 60.4406 370.324 60.5728 371.731 60.5728V63.7307H345.284V60.5728C348.148 60.5728 350.124 60.3028 351.206 59.7627C352.287 59.2226 352.828 58.3298 352.828 57.0899C352.828 56.5498 352.801 56.0483 352.746 55.5908C352.69 55.1334 352.597 54.6319 352.464 54.0918C352.326 53.5518 352.138 52.9455 351.896 52.2677C351.653 51.5953 351.338 50.7962 350.963 49.8759L347.635 41.1243L347.64 41.1353ZM327.601 37.0847H346.101L337.093 13.1832L327.601 37.0847Z" fill="#1E1E1E"/>
<path d="M426.982 64.5463L388.442 13.8335H388.116V48.4264C388.116 51.1269 388.21 53.2597 388.398 54.8248C388.586 56.3899 388.966 57.6079 389.535 58.4676C390.103 59.3328 390.915 59.9005 391.969 60.1705C393.023 60.4406 394.414 60.6059 396.147 60.6555V63.7362H374.324V60.6555C376.217 60.6004 377.746 60.424 378.911 60.1264C380.075 59.8288 380.98 59.2777 381.626 58.4676C382.277 57.6575 382.708 56.5112 382.923 55.0232C383.138 53.5407 383.249 51.5292 383.249 48.9886V16.0985C383.249 13.828 383.155 11.9542 382.967 10.4662C382.779 8.98376 382.399 7.80439 381.83 6.94466C381.262 6.07943 380.439 5.47321 379.358 5.1205C378.276 4.76779 376.869 4.54184 375.141 4.43162V1.35645H391.207L426.662 48.5863H426.987V16.6662C426.987 14.0209 426.893 11.8991 426.706 10.3064C426.518 8.71372 426.137 7.48475 425.569 6.61951C425 5.75428 424.189 5.18664 423.135 4.91659C422.081 4.64655 420.684 4.48673 418.957 4.43162V1.35645H440.779V4.43713C438.886 4.49224 437.358 4.6686 436.193 4.96619C435.029 5.26379 434.123 5.8149 433.478 6.62502C432.826 7.43515 432.396 8.59798 432.181 10.108C431.965 11.618 431.855 13.6186 431.855 16.1041V64.5518H426.987L426.982 64.5463Z" fill="#1E1E1E"/>
<path d="M498.787 1.35665H501.061L501.79 19.9896H498.787C497.595 15.239 495.299 11.5135 491.888 8.80761C488.483 6.10719 484.371 4.75698 479.559 4.75698C476.258 4.75698 473.311 5.40729 470.717 6.70239C468.123 7.99749 465.932 9.86023 464.144 12.2906C462.361 14.721 460.993 17.6915 460.049 21.202C459.1 24.7125 458.63 28.6805 458.63 33.1114C458.63 41.8079 460.441 48.4928 464.067 53.1607C467.687 57.8341 472.936 60.1707 479.807 60.1707C490.244 60.1707 496.955 54.6376 499.93 43.5604H503.258V63.7309H500.415L498.55 57.3326C492.871 62.1382 486 64.541 477.942 64.541C473.344 64.541 469.194 63.8136 465.491 62.3531C461.787 60.8927 458.619 58.8316 455.998 56.1532C453.376 53.4803 451.345 50.2288 449.91 46.3931C448.475 42.5574 447.758 38.2918 447.758 33.5909C447.758 28.8899 448.514 24.1945 450.032 20.1439C451.544 16.0932 453.669 12.6102 456.401 9.6949C459.133 6.77954 462.405 4.52552 466.219 2.93282C470.033 1.34012 474.238 0.541016 478.836 0.541016C482.081 0.541016 485.139 0.998434 488.003 1.91878C490.867 2.83913 493.98 4.32161 497.336 6.37172L498.798 1.35114L498.787 1.35665Z" fill="#1E1E1E"/>
<path d="M529.049 29.4684C531.969 29.4684 534.414 29.292 536.389 28.9393C538.365 28.5866 539.933 28.0355 541.097 27.2805C542.262 26.5255 543.095 25.55 543.614 24.3651C544.127 23.1803 544.386 21.7749 544.386 20.1547H547.229V42.2706H544.386C544.386 40.6503 544.155 39.245 543.697 38.0601C543.239 36.8753 542.427 35.8888 541.263 35.1007C540.098 34.3181 538.531 33.7229 536.555 33.3206C534.579 32.9183 532.079 32.7144 529.049 32.7144V51.0222C529.049 52.8022 529.264 54.2792 529.7 55.4365C530.131 56.5994 530.876 57.5418 531.93 58.2747C532.984 59.0022 534.375 59.5202 536.108 59.8123C537.841 60.1099 539.977 60.2587 542.516 60.2587C545.38 60.2587 547.814 60.0548 549.817 59.6525C551.815 59.2447 553.493 58.5613 554.845 57.5858C556.197 56.6159 557.279 55.3318 558.09 53.7391C558.902 52.1464 559.575 50.1624 560.116 47.7872H563.201L561.981 63.7472H511.598V60.6665C513.491 60.6114 515.019 60.4516 516.184 60.1816C517.349 59.9115 518.254 59.4541 518.899 58.8038C519.551 58.1535 519.981 57.2386 520.196 56.0483C520.412 54.8634 520.522 53.3203 520.522 51.43V13.6682C520.522 11.7779 520.428 10.2513 520.241 9.08847C520.053 7.92563 519.672 7.0108 519.104 6.33294C518.535 5.66059 517.713 5.19766 516.631 4.95517C515.549 4.71268 514.142 4.53633 512.414 4.42611V1.35645H559.31L560.039 15.6136H557.196C556.871 13.4532 556.346 11.6842 555.612 10.3064C554.884 8.92865 553.879 7.83746 552.61 7.02733C551.341 6.2172 549.729 5.64956 547.781 5.32441C545.833 4.99926 543.481 4.83944 540.722 4.83944H530.418C529.496 4.83944 529.038 5.29686 529.038 6.2172V29.4684H529.049Z" fill="#1E1E1E"/>
</g>
<defs>
<clipPath id="clip0_9764_469">
<rect width="563.2" height="64.0931" fill="white" transform="translate(0 0.545898)"/>
</clipPath>
</defs>
</svg>
