<svg width="30" height="31" viewBox="0 0 30 31" fill="none" xmlns="http://www.w3.org/2000/svg">
<path d="M30 15.0923C30 6.80864 23.2836 0.0922852 15 0.0922852C6.71635 0.0922852 0 6.80864 0 15.0923C0 22.5786 5.48446 28.7845 12.6564 29.9109V19.4292H8.84686V15.0923H12.6564V11.7868C12.6564 8.02788 14.8966 5.95011 18.3223 5.95011C19.9634 5.95011 21.6805 6.24332 21.6805 6.24332V9.93478H19.7884C17.9257 9.93478 17.3436 11.0907 17.3436 12.2783V15.0923H21.5033L20.8388 19.4292H17.3436V29.9109C24.5155 28.7866 30 22.5807 30 15.0923Z" fill="url(#paint0_linear_9817_22)"/>
<defs>
<linearGradient id="paint0_linear_9817_22" x1="-0.6" y1="5.55902" x2="37.3884" y2="9.21624" gradientUnits="userSpaceOnUse">
<stop stop-color="#D86C2C"/>
<stop offset="0.859156" stop-color="#F3A46B"/>
</linearGradient>
</defs>
</svg>
