<svg width="30" height="31" viewBox="0 0 30 31" fill="none" xmlns="http://www.w3.org/2000/svg">
<path d="M8.78763 0.197192C7.19163 0.272492 6.10172 0.527192 5.14892 0.901592C4.16282 1.28589 3.32702 1.80159 2.49542 2.63619C1.66382 3.47079 1.15172 4.30719 0.770124 5.29479C0.400824 6.24969 0.150624 7.34049 0.0801243 8.93739C0.00962433 10.5343 -0.00597568 11.0476 0.00182432 15.121C0.00962432 19.1944 0.0276243 19.705 0.105024 21.3052C0.181224 22.9009 0.435024 23.9905 0.809424 24.9436C1.19432 25.9297 1.70942 26.7652 2.54432 27.5971C3.37922 28.429 4.21502 28.9399 5.20502 29.3221C6.15902 29.6908 7.25012 29.9422 8.84672 30.0121C10.4433 30.082 10.9572 30.0982 15.0294 30.0904C19.1016 30.0826 19.6143 30.0646 21.2142 29.9887C22.8141 29.9128 23.898 29.6572 24.8514 29.2846C25.8375 28.8988 26.6736 28.3846 27.5049 27.5494C28.3362 26.7142 28.848 25.8772 29.2293 24.889C29.5989 23.935 29.85 22.8439 29.9193 21.2485C29.9892 19.6474 30.0057 19.1362 29.9979 15.0634C29.9901 10.9906 29.9718 10.48 29.8959 8.88039C29.82 7.28079 29.5659 6.19449 29.1918 5.24079C28.8063 4.25469 28.2918 3.41979 27.4572 2.58729C26.6226 1.75479 25.785 1.24329 24.7971 0.862892C23.8425 0.493592 22.752 0.241892 21.1554 0.172892C19.5588 0.103892 19.0449 0.0861916 14.9712 0.0939916C10.8975 0.101792 10.3875 0.119192 8.78763 0.197192ZM8.96282 27.3136C7.50032 27.25 6.70622 27.007 6.17702 26.8036C5.47622 26.5336 4.97702 26.2072 4.44962 25.6849C3.92222 25.1626 3.59822 24.6616 3.32462 23.9623C3.11912 23.4331 2.87162 22.6399 2.80322 21.1774C2.72882 19.5967 2.71322 19.1221 2.70452 15.1174C2.69582 11.1127 2.71112 10.6387 2.78042 9.05739C2.84282 7.59609 3.08732 6.80109 3.29042 6.27219C3.56042 5.57049 3.88562 5.07219 4.40912 4.54509C4.93262 4.01799 5.43212 3.69339 6.13202 3.41979C6.66062 3.21339 7.45382 2.96799 8.91572 2.89839C10.4976 2.82339 10.9716 2.80839 14.9757 2.79969C18.9798 2.79099 19.455 2.80599 21.0375 2.87559C22.4988 2.93919 23.2941 3.18129 23.8224 3.38559C24.5235 3.65559 25.0224 3.97989 25.5495 4.50429C26.0766 5.02869 26.4015 5.52639 26.6751 6.22779C26.8818 6.75489 27.1272 7.54779 27.1962 9.01059C27.2715 10.5925 27.2886 11.0668 27.2958 15.0706C27.303 19.0744 27.2889 19.5499 27.2196 21.1306C27.1557 22.5931 26.9133 23.3875 26.7096 23.9173C26.4396 24.6178 26.1141 25.1173 25.5903 25.6441C25.0665 26.1709 24.5676 26.4955 23.8674 26.7691C23.3394 26.9752 22.5453 27.2212 21.0846 27.2908C19.5027 27.3652 19.0287 27.3808 15.0231 27.3895C11.0175 27.3982 10.545 27.382 8.96312 27.3136M21.1911 7.07529C21.1917 7.43132 21.2979 7.77918 21.4962 8.07487C21.6945 8.37056 21.976 8.6008 22.3052 8.73647C22.6344 8.87215 22.9964 8.90715 23.3454 8.83707C23.6945 8.76698 24.015 8.59496 24.2662 8.34274C24.5175 8.09053 24.6884 7.76946 24.7572 7.42014C24.826 7.07082 24.7897 6.70894 24.6528 6.38027C24.5159 6.0516 24.2846 5.77091 23.9882 5.57369C23.6918 5.37647 23.3436 5.27158 22.9875 5.27229C22.5102 5.27325 22.0529 5.46372 21.716 5.80183C21.3791 6.13994 21.1903 6.59801 21.1911 7.07529ZM7.29812 15.1072C7.30652 19.3612 10.7613 22.8019 15.0144 22.7938C19.2675 22.7857 22.7106 19.3312 22.7025 15.0772C22.6944 10.8232 19.2387 7.38159 14.985 7.38999C10.7313 7.39839 7.29002 10.8538 7.29812 15.1072ZM9.99992 15.1018C9.99797 14.1129 10.2893 13.1456 10.8371 12.3222C11.3849 11.4989 12.1645 10.8565 13.0774 10.4762C13.9903 10.096 14.9955 9.99495 15.9658 10.186C16.9361 10.377 17.828 10.8514 18.5286 11.5493C19.2293 12.2472 19.7072 13.1372 19.9021 14.1067C20.0969 15.0763 19.9999 16.0818 19.6233 16.9962C19.2466 17.9106 18.6073 18.6928 17.7862 19.2438C16.965 19.7949 15.9988 20.09 15.0099 20.092C14.3533 20.0934 13.7028 19.9654 13.0956 19.7153C12.4884 19.4653 11.9365 19.0981 11.4712 18.6347C11.006 18.1713 10.6366 17.6208 10.3842 17.0146C10.1317 16.4084 10.0011 15.7584 9.99992 15.1018Z" fill="url(#paint0_linear_9817_44)"/>
<defs>
<linearGradient id="paint0_linear_9817_44" x1="-0.599993" y1="5.59226" x2="37.3923" y2="9.2277" gradientUnits="userSpaceOnUse">
<stop stop-color="#D86C2C"/>
<stop offset="0.859156" stop-color="#F3A46B"/>
</linearGradient>
</defs>
</svg>
