<svg width="31" height="31" viewBox="0 0 31 31" fill="none" xmlns="http://www.w3.org/2000/svg">
<path d="M18.8022 12.8746V6.34289C20.1082 7.27919 21.6734 7.78409 23.2802 7.7809V5.28196C22.3328 5.07744 21.4749 4.57254 20.8412 3.84076C19.8137 3.17288 19.1031 2.11196 18.8759 0.907227H16.5201L16.5169 13.7918C16.4656 15.2809 15.2141 16.4441 13.7225 16.393C12.8839 16.3642 12.1093 15.9488 11.6228 15.2681C10.2976 14.5779 9.78551 12.9449 10.4769 11.6252C10.9442 10.7336 11.8693 10.1712 12.8775 10.1744C13.1496 10.1744 13.4185 10.2159 13.6777 10.299V7.7777C10.4737 7.8512 7.89062 10.4748 7.89062 13.6895C7.89062 15.185 8.45717 16.6262 9.48144 17.7191C10.4769 18.4189 11.6612 18.7928 12.8775 18.7928C16.1424 18.7896 18.8022 16.1373 18.8022 12.8746Z" fill="url(#paint0_linear_9817_26)"/>
<path d="M0 23.126H5.19174L4.71482 24.6087H3.36727V30.0923H1.69004V24.6055L0 24.6087V23.126Z" fill="url(#paint1_linear_9817_26)"/>
<path d="M13.6953 23.1265H19.0087L18.5318 24.6092H17.0658V30.0928H15.3853V24.606L13.6953 24.6092V23.1265Z" fill="url(#paint2_linear_9817_26)"/>
<path d="M5.50781 25.3403H7.17224V30.0889H5.51741L5.50781 25.3403Z" fill="url(#paint3_linear_9817_26)"/>
<path d="M7.83203 23.104H9.49326V26.3475L11.1417 24.7337H13.1262L11.0425 26.7533L13.3791 30.0895H11.5482L9.98939 27.7759L9.49646 28.2553V30.0895H7.83523V23.104H7.83203Z" fill="url(#paint4_linear_9817_26)"/>
<path d="M25.4531 23.104H27.1176V26.3475L28.766 24.7337H30.7505L28.6668 26.7533L31.0002 30.0895H29.1661L27.6073 27.7759L27.1144 28.2553V30.0895H25.4531V23.104Z" fill="url(#paint5_linear_9817_26)"/>
<path d="M6.34252 24.7975C6.80568 24.7975 7.18114 24.4227 7.18114 23.9603C7.18114 23.4979 6.80568 23.123 6.34252 23.123C5.87937 23.123 5.50391 23.4979 5.50391 23.9603C5.50391 24.4227 5.87937 24.7975 6.34252 24.7975Z" fill="url(#paint6_linear_9817_26)"/>
<path d="M21.6222 24.4048C20.0474 24.4048 18.7734 25.6766 18.7734 27.2488C18.7734 28.8211 20.0474 30.0929 21.6222 30.0929C23.197 30.0929 24.4709 28.8211 24.4709 27.2488C24.4709 25.6766 23.197 24.4048 21.6222 24.4048ZM21.6222 28.6293C20.8572 28.6293 20.2362 28.0094 20.2362 27.2488C20.2362 26.4851 20.8572 25.8652 21.619 25.8652C22.384 25.8652 23.0049 26.4851 23.0049 27.2456C23.0081 28.0094 22.3872 28.6293 21.6222 28.6293Z" fill="url(#paint7_linear_9817_26)"/>
<defs>
<linearGradient id="paint0_linear_9817_26" x1="7.58283" y1="4.18625" x2="27.1185" y2="5.79474" gradientUnits="userSpaceOnUse">
<stop stop-color="#D86C2C"/>
<stop offset="0.859156" stop-color="#F3A46B"/>
</linearGradient>
<linearGradient id="paint1_linear_9817_26" x1="-0.103835" y1="24.4031" x2="6.49772" y2="24.8739" gradientUnits="userSpaceOnUse">
<stop stop-color="#D86C2C"/>
<stop offset="0.859156" stop-color="#F3A46B"/>
</linearGradient>
<linearGradient id="paint2_linear_9817_26" x1="13.589" y1="24.4036" x2="20.3436" y2="24.8966" gradientUnits="userSpaceOnUse">
<stop stop-color="#D86C2C"/>
<stop offset="0.859156" stop-color="#F3A46B"/>
</linearGradient>
<linearGradient id="paint3_linear_9817_26" x1="5.47452" y1="26.2109" x2="7.5993" y2="26.2822" gradientUnits="userSpaceOnUse">
<stop stop-color="#D86C2C"/>
<stop offset="0.859156" stop-color="#F3A46B"/>
</linearGradient>
<linearGradient id="paint4_linear_9817_26" x1="7.72109" y1="24.3847" x2="14.7696" y2="24.9203" gradientUnits="userSpaceOnUse">
<stop stop-color="#D86C2C"/>
<stop offset="0.859156" stop-color="#F3A46B"/>
</linearGradient>
<linearGradient id="paint5_linear_9817_26" x1="25.3422" y1="24.3847" x2="32.3907" y2="24.9203" gradientUnits="userSpaceOnUse">
<stop stop-color="#D86C2C"/>
<stop offset="0.859156" stop-color="#F3A46B"/>
</linearGradient>
<linearGradient id="paint6_linear_9817_26" x1="5.47036" y1="23.43" x2="7.59438" y2="23.6336" gradientUnits="userSpaceOnUse">
<stop stop-color="#D86C2C"/>
<stop offset="0.859156" stop-color="#F3A46B"/>
</linearGradient>
<linearGradient id="paint7_linear_9817_26" x1="18.6595" y1="25.4476" x2="25.8747" y2="26.1392" gradientUnits="userSpaceOnUse">
<stop stop-color="#D86C2C"/>
<stop offset="0.859156" stop-color="#F3A46B"/>
</linearGradient>
</defs>
</svg>
