<svg width="43" height="31" viewBox="0 0 43 31" fill="none" xmlns="http://www.w3.org/2000/svg">
<path d="M42.1014 4.77688C41.6069 2.93285 40.15 1.48075 38.2998 0.987932C34.9465 0.0922871 21.5 0.0922852 21.5 0.0922852C21.5 0.0922852 8.05353 0.0922871 4.70017 0.987932C2.85012 1.48075 1.39299 2.93285 0.898536 4.77688C0 8.11905 0 15.0923 0 15.0923C0 15.0923 0 22.0654 0.898536 25.4079C1.39299 27.2517 2.85012 28.7038 4.70017 29.1968C8.05353 30.0923 21.5 30.0923 21.5 30.0923C21.5 30.0923 34.9465 30.0923 38.2998 29.1968C40.15 28.7038 41.6069 27.2517 42.1014 25.4079C43 22.0654 43 15.0923 43 15.0923C43 15.0923 43 8.11905 42.1014 4.77688Z" fill="url(#paint0_linear_9817_46)"/>
<path d="M17.1016 21.4233L28.3402 15.0925L17.1016 8.76104V21.4233Z" fill="#FDF6F1"/>
<defs>
<linearGradient id="paint0_linear_9817_46" x1="-0.859999" y1="24.5923" x2="53.08" y2="17.1941" gradientUnits="userSpaceOnUse">
<stop stop-color="#D86C2C"/>
<stop offset="0.859156" stop-color="#F3A46B"/>
</linearGradient>
</defs>
</svg>
