<svg width="12" height="7" viewBox="0 0 12 7" fill="none" xmlns="http://www.w3.org/2000/svg">
<path d="M11.354 0.946313L6.35403 5.94631C6.30759 5.9928 6.25245 6.02968 6.19175 6.05484C6.13105 6.08001 6.06599 6.09296 6.00028 6.09296C5.93457 6.09296 5.86951 6.08001 5.80881 6.05484C5.74811 6.02968 5.69296 5.9928 5.64653 5.94631L0.646528 0.946313C0.552708 0.852493 0.5 0.725245 0.5 0.592563C0.5 0.459881 0.552708 0.332633 0.646528 0.238813C0.740348 0.144993 0.867596 0.0922852 1.00028 0.0922852C1.13296 0.0922852 1.26021 0.144993 1.35403 0.238813L6.00028 4.88569L10.6465 0.238813C10.693 0.192358 10.7481 0.155508 10.8088 0.130366C10.8695 0.105225 10.9346 0.0922852 11.0003 0.0922852C11.066 0.0922852 11.131 0.105225 11.1917 0.130366C11.2524 0.155508 11.3076 0.192358 11.354 0.238813C11.4005 0.285268 11.4373 0.340418 11.4625 0.401115C11.4876 0.461811 11.5006 0.526866 11.5006 0.592563C11.5006 0.658261 11.4876 0.723315 11.4625 0.784011C11.4373 0.844708 11.4005 0.899858 11.354 0.946313Z" fill="#1E1E1E"/>
</svg>
