<svg width="14" height="16" viewBox="0 0 14 16" fill="none" xmlns="http://www.w3.org/2000/svg">
<path d="M12.625 1.84229H10.9375V1.27979C10.9375 1.1306 10.8782 0.987527 10.7727 0.882038C10.6673 0.776548 10.5242 0.717285 10.375 0.717285C10.2258 0.717285 10.0827 0.776548 9.97725 0.882038C9.87176 0.987527 9.8125 1.1306 9.8125 1.27979V1.84229H4.1875V1.27979C4.1875 1.1306 4.12824 0.987527 4.02275 0.882038C3.91726 0.776548 3.77418 0.717285 3.625 0.717285C3.47582 0.717285 3.33274 0.776548 3.22725 0.882038C3.12176 0.987527 3.0625 1.1306 3.0625 1.27979V1.84229H1.375C1.07663 1.84229 0.790483 1.96081 0.579505 2.17179C0.368526 2.38277 0.25 2.66892 0.25 2.96729V14.2173C0.25 14.5157 0.368526 14.8018 0.579505 15.0128C0.790483 15.2238 1.07663 15.3423 1.375 15.3423H12.625C12.9234 15.3423 13.2095 15.2238 13.4205 15.0128C13.6315 14.8018 13.75 14.5157 13.75 14.2173V2.96729C13.75 2.66892 13.6315 2.38277 13.4205 2.17179C13.2095 1.96081 12.9234 1.84229 12.625 1.84229ZM3.0625 2.96729V3.52979C3.0625 3.67897 3.12176 3.82204 3.22725 3.92753C3.33274 4.03302 3.47582 4.09229 3.625 4.09229C3.77418 4.09229 3.91726 4.03302 4.02275 3.92753C4.12824 3.82204 4.1875 3.67897 4.1875 3.52979V2.96729H9.8125V3.52979C9.8125 3.67897 9.87176 3.82204 9.97725 3.92753C10.0827 4.03302 10.2258 4.09229 10.375 4.09229C10.5242 4.09229 10.6673 4.03302 10.7727 3.92753C10.8782 3.82204 10.9375 3.67897 10.9375 3.52979V2.96729H12.625V5.21729H1.375V2.96729H3.0625ZM12.625 14.2173H1.375V6.34229H12.625V14.2173ZM7.84375 8.87354C7.84375 9.04041 7.79426 9.20354 7.70155 9.3423C7.60884 9.48105 7.47706 9.5892 7.32289 9.65306C7.16871 9.71692 6.99906 9.73363 6.83539 9.70107C6.67172 9.66852 6.52138 9.58816 6.40338 9.47016C6.28538 9.35216 6.20502 9.20181 6.17246 9.03814C6.13991 8.87447 6.15662 8.70482 6.22048 8.55065C6.28434 8.39647 6.39248 8.26469 6.53124 8.17198C6.66999 8.07927 6.83312 8.02979 7 8.02979C7.22378 8.02979 7.43839 8.11868 7.59662 8.27691C7.75485 8.43515 7.84375 8.64976 7.84375 8.87354ZM10.9375 8.87354C10.9375 9.04041 10.888 9.20354 10.7953 9.3423C10.7026 9.48105 10.5708 9.5892 10.4166 9.65306C10.2625 9.71692 10.0928 9.73363 9.92914 9.70107C9.76547 9.66852 9.61513 9.58816 9.49713 9.47016C9.37913 9.35216 9.29877 9.20181 9.26621 9.03814C9.23366 8.87447 9.25037 8.70482 9.31423 8.55065C9.37809 8.39647 9.48623 8.26469 9.62499 8.17198C9.76374 8.07927 9.92687 8.02979 10.0938 8.02979C10.3175 8.02979 10.5321 8.11868 10.6904 8.27691C10.8486 8.43515 10.9375 8.64976 10.9375 8.87354ZM4.75 11.686C4.75 11.8529 4.70052 12.016 4.6078 12.1548C4.51509 12.2936 4.38331 12.4017 4.22914 12.4656C4.07496 12.5294 3.90531 12.5461 3.74164 12.5136C3.57797 12.481 3.42763 12.4007 3.30963 12.2827C3.19163 12.1647 3.11127 12.0143 3.07871 11.8506C3.04616 11.687 3.06287 11.5173 3.12673 11.3631C3.19059 11.209 3.29873 11.0772 3.43749 10.9845C3.57624 10.8918 3.73937 10.8423 3.90625 10.8423C4.13003 10.8423 4.34464 10.9312 4.50287 11.0894C4.66111 11.2476 4.75 11.4623 4.75 11.686ZM7.84375 11.686C7.84375 11.8529 7.79426 12.016 7.70155 12.1548C7.60884 12.2936 7.47706 12.4017 7.32289 12.4656C7.16871 12.5294 6.99906 12.5461 6.83539 12.5136C6.67172 12.481 6.52138 12.4007 6.40338 12.2827C6.28538 12.1647 6.20502 12.0143 6.17246 11.8506C6.13991 11.687 6.15662 11.5173 6.22048 11.3631C6.28434 11.209 6.39248 11.0772 6.53124 10.9845C6.66999 10.8918 6.83312 10.8423 7 10.8423C7.22378 10.8423 7.43839 10.9312 7.59662 11.0894C7.75485 11.2476 7.84375 11.4623 7.84375 11.686ZM10.9375 11.686C10.9375 11.8529 10.888 12.016 10.7953 12.1548C10.7026 12.2936 10.5708 12.4017 10.4166 12.4656C10.2625 12.5294 10.0928 12.5461 9.92914 12.5136C9.76547 12.481 9.61513 12.4007 9.49713 12.2827C9.37913 12.1647 9.29877 12.0143 9.26621 11.8506C9.23366 11.687 9.25037 11.5173 9.31423 11.3631C9.37809 11.209 9.48623 11.0772 9.62499 10.9845C9.76374 10.8918 9.92687 10.8423 10.0938 10.8423C10.3175 10.8423 10.5321 10.9312 10.6904 11.0894C10.8486 11.2476 10.9375 11.4623 10.9375 11.686Z" fill="#1E1E1E"/>
</svg>
