<svg width="46" height="50" viewBox="0 0 46 50" fill="none" xmlns="http://www.w3.org/2000/svg">
<path d="M41.5 4.59229H35.875V2.71729C35.875 2.22 35.6775 1.74309 35.3258 1.39146C34.9742 1.03983 34.4973 0.842285 34 0.842285C33.5027 0.842285 33.0258 1.03983 32.6742 1.39146C32.3225 1.74309 32.125 2.22 32.125 2.71729V4.59229H13.375V2.71729C13.375 2.22 13.1775 1.74309 12.8258 1.39146C12.4742 1.03983 11.9973 0.842285 11.5 0.842285C11.0027 0.842285 10.5258 1.03983 10.1742 1.39146C9.82254 1.74309 9.625 2.22 9.625 2.71729V4.59229H4C3.00544 4.59229 2.05161 4.98737 1.34835 5.69063C0.645088 6.3939 0.25 7.34772 0.25 8.34229V45.8423C0.25 46.8368 0.645088 47.7907 1.34835 48.4939C2.05161 49.1972 3.00544 49.5923 4 49.5923H41.5C42.4946 49.5923 43.4484 49.1972 44.1516 48.4939C44.8549 47.7907 45.25 46.8368 45.25 45.8423V8.34229C45.25 7.34772 44.8549 6.3939 44.1516 5.69063C43.4484 4.98737 42.4946 4.59229 41.5 4.59229ZM9.625 8.34229V10.2173C9.625 10.7146 9.82254 11.1915 10.1742 11.5431C10.5258 11.8947 11.0027 12.0923 11.5 12.0923C11.9973 12.0923 12.4742 11.8947 12.8258 11.5431C13.1775 11.1915 13.375 10.7146 13.375 10.2173V8.34229H32.125V10.2173C32.125 10.7146 32.3225 11.1915 32.6742 11.5431C33.0258 11.8947 33.5027 12.0923 34 12.0923C34.4973 12.0923 34.9742 11.8947 35.3258 11.5431C35.6775 11.1915 35.875 10.7146 35.875 10.2173V8.34229H41.5V15.8423H4V8.34229H9.625ZM41.5 45.8423H4V19.5923H41.5V45.8423ZM32.5141 25.7657C32.6884 25.9399 32.8267 26.1467 32.9211 26.3743C33.0154 26.6019 33.064 26.8459 33.064 27.0923C33.064 27.3387 33.0154 27.5827 32.9211 27.8103C32.8267 28.0379 32.6884 28.2447 32.5141 28.4188L21.2641 39.6688C21.0899 39.8432 20.8831 39.9815 20.6555 40.0758C20.4279 40.1702 20.1839 40.2188 19.9375 40.2188C19.6911 40.2188 19.4471 40.1702 19.2195 40.0758C18.9919 39.9815 18.7851 39.8432 18.6109 39.6688L12.9859 34.0438C12.6341 33.692 12.4365 33.2148 12.4365 32.7173C12.4365 32.2197 12.6341 31.7425 12.9859 31.3907C13.3378 31.0389 13.8149 30.8412 14.3125 30.8412C14.8101 30.8412 15.2872 31.0389 15.6391 31.3907L19.9375 35.6915L29.8609 25.7657C30.0351 25.5914 30.2419 25.4531 30.4695 25.3587C30.6971 25.2644 30.9411 25.2158 31.1875 25.2158C31.4339 25.2158 31.6779 25.2644 31.9055 25.3587C32.1331 25.4531 32.3399 25.5914 32.5141 25.7657Z" fill="url(#paint0_linear_9759_969)"/>
<defs>
<linearGradient id="paint0_linear_9759_969" x1="-0.649999" y1="9.77978" x2="56.4156" y2="14.8203" gradientUnits="userSpaceOnUse">
<stop stop-color="#D86C2C"/>
<stop offset="0.859156" stop-color="#F3A46B"/>
</linearGradient>
</defs>
</svg>
