<svg width="30" height="19" viewBox="0 0 30 19" fill="none" xmlns="http://www.w3.org/2000/svg">
<path d="M29.4713 2.21729C29.3118 2.13181 29.1321 2.0912 28.9514 2.09979C28.7707 2.10837 28.5956 2.16583 28.445 2.26604L24 5.22354V2.09229C24 1.56185 23.7893 1.05314 23.4142 0.678071C23.0391 0.302999 22.5304 0.0922852 22 0.0922852H2C1.46957 0.0922852 0.960859 0.302999 0.585786 0.678071C0.210714 1.05314 0 1.56185 0 2.09229V16.0923C0 16.6227 0.210714 17.1314 0.585786 17.5065C0.960859 17.8816 1.46957 18.0923 2 18.0923H22C22.5304 18.0923 23.0391 17.8816 23.4142 17.5065C23.7893 17.1314 24 16.6227 24 16.0923V12.9673L28.445 15.931C28.6101 16.0382 28.8032 16.0943 29 16.0923C29.2652 16.0923 29.5196 15.9869 29.7071 15.7994C29.8946 15.6119 30 15.3575 30 15.0923V3.09229C29.9987 2.91236 29.949 2.73611 29.8559 2.58211C29.7628 2.42811 29.63 2.30207 29.4713 2.21729ZM22 16.0923H2V2.09229H22V16.0923ZM28 13.2235L24 10.5573V7.62729L28 4.96729V13.2235Z" fill="url(#paint0_linear_9768_1042)"/>
<defs>
<linearGradient id="paint0_linear_9768_1042" x1="-0.6" y1="3.39228" x2="36.7895" y2="9.35527" gradientUnits="userSpaceOnUse">
<stop stop-color="#D86C2C"/>
<stop offset="0.859156" stop-color="#F3A46B"/>
</linearGradient>
</defs>
</svg>
