<svg width="30" height="19" viewBox="0 0 30 19" fill="none" xmlns="http://www.w3.org/2000/svg">
<path d="M29.4713 2.625C29.3118 2.53953 29.1321 2.49892 28.9514 2.5075C28.7707 2.51609 28.5956 2.57354 28.445 2.67375L24 5.63125V2.5C24 1.96957 23.7893 1.46086 23.4142 1.08579C23.0391 0.710714 22.5304 0.5 22 0.5H2C1.46957 0.5 0.960859 0.710714 0.585786 1.08579C0.210714 1.46086 0 1.96957 0 2.5V16.5C0 17.0304 0.210714 17.5391 0.585786 17.9142C0.960859 18.2893 1.46957 18.5 2 18.5H22C22.5304 18.5 23.0391 18.2893 23.4142 17.9142C23.7893 17.5391 24 17.0304 24 16.5V13.375L28.445 16.3388C28.6101 16.446 28.8032 16.502 29 16.5C29.2652 16.5 29.5196 16.3946 29.7071 16.2071C29.8946 16.0196 30 15.7652 30 15.5V3.5C29.9987 3.32007 29.949 3.14382 29.8559 2.98982C29.7628 2.83582 29.63 2.70979 29.4713 2.625ZM22 16.5H2V2.5H22V16.5ZM28 13.6313L24 10.965V8.035L28 5.375V13.6313Z" fill="black"/>
</svg>
