<svg width="16" height="15" viewBox="0 0 16 15" fill="none" xmlns="http://www.w3.org/2000/svg">
<path d="M8 0.279785C6.55373 0.279785 5.13993 0.708656 3.9374 1.51216C2.73486 2.31567 1.7976 3.45773 1.24413 4.79391C0.690668 6.1301 0.545857 7.6004 0.828011 9.01888C1.11017 10.4374 1.80661 11.7403 2.82928 12.763C3.85196 13.7857 5.15492 14.4821 6.57341 14.7643C7.99189 15.0464 9.46219 14.9016 10.7984 14.3482C12.1346 13.7947 13.2766 12.8574 14.0801 11.6549C14.8836 10.4524 15.3125 9.03856 15.3125 7.59229C15.3105 5.65352 14.5394 3.79474 13.1685 2.42383C11.7975 1.05291 9.93877 0.281833 8 0.279785ZM8 13.7798C6.77623 13.7798 5.57994 13.4169 4.56241 12.737C3.54488 12.0571 2.75182 11.0908 2.2835 9.96014C1.81518 8.82952 1.69265 7.58542 1.93139 6.38516C2.17014 5.18491 2.75944 4.0824 3.62478 3.21706C4.49012 2.35172 5.59262 1.76242 6.79288 1.52368C7.99314 1.28493 9.23724 1.40746 10.3679 1.87578C11.4985 2.3441 12.4648 3.13717 13.1447 4.15469C13.8246 5.17222 14.1875 6.36851 14.1875 7.59229C14.1856 9.23274 13.5331 10.8055 12.3732 11.9655C11.2132 13.1254 9.64046 13.7779 8 13.7798ZM5.75 7.59229C5.75 8.06452 5.89859 8.52479 6.17471 8.90788C6.45083 9.29098 6.84049 9.57749 7.28849 9.72682C7.73649 9.87616 8.22013 9.88075 8.67088 9.73994C9.12164 9.59914 9.51666 9.32007 9.8 8.94228C9.88961 8.82294 10.023 8.74407 10.1707 8.72304C10.3185 8.70201 10.4685 8.74053 10.5879 8.83014C10.7072 8.91974 10.7861 9.05309 10.8071 9.20084C10.8281 9.34859 10.7896 9.49864 10.7 9.61799C10.2749 10.1845 9.68232 10.6029 9.00622 10.814C8.33011 11.025 7.60475 11.018 6.93285 10.794C6.26094 10.5699 5.67656 10.1401 5.26246 9.5655C4.84836 8.99089 4.62553 8.30056 4.62553 7.59229C4.62553 6.88401 4.84836 6.19368 5.26246 5.61907C5.67656 5.04445 6.26094 4.61468 6.93285 4.39062C7.60475 4.16655 8.33011 4.15955 9.00622 4.37061C9.68232 4.58166 10.2749 5.00007 10.7 5.56658C10.7444 5.62568 10.7767 5.69293 10.795 5.76451C10.8134 5.83608 10.8175 5.91058 10.8071 5.98373C10.7967 6.05689 10.772 6.12728 10.7343 6.19089C10.6967 6.25449 10.6469 6.31007 10.5879 6.35443C10.5288 6.3988 10.4615 6.43109 10.3899 6.44947C10.3184 6.46784 10.2439 6.47194 10.1707 6.46153C10.0975 6.45111 10.0272 6.42639 9.96355 6.38878C9.89994 6.35116 9.84437 6.30138 9.8 6.24229C9.51666 5.8645 9.12164 5.58543 8.67088 5.44463C8.22013 5.30382 7.73649 5.30841 7.28849 5.45775C6.84049 5.60708 6.45083 5.89359 6.17471 6.27669C5.89859 6.65978 5.75 7.12005 5.75 7.59229Z" fill="#1E1E1E"/>
</svg>
