<svg width="30" height="26" viewBox="0 0 30 26" fill="none" xmlns="http://www.w3.org/2000/svg">
<path d="M28.7913 15.7248C28.4191 15.4385 27.986 15.2419 27.5255 15.1502C27.0651 15.0585 26.5897 15.0742 26.1362 15.1961L20.9062 16.3986C21.0279 15.8846 21.0317 15.3497 20.9172 14.834C20.8028 14.3184 20.5731 13.8353 20.2454 13.421C19.9177 13.0067 19.5005 12.672 19.0251 12.4419C18.5496 12.2118 18.0282 12.0923 17.5 12.0923H11.2425C10.717 12.091 10.1964 12.1939 9.71092 12.3949C9.22539 12.5959 8.78451 12.8912 8.41375 13.2636L5.58625 16.0923H2C1.46957 16.0923 0.960859 16.3031 0.585786 16.6781C0.210714 17.0532 0 17.5619 0 18.0923L0 23.0923C0 23.6228 0.210714 24.1315 0.585786 24.5066C0.960859 24.8816 1.46957 25.0923 2 25.0923H15C15.0818 25.0924 15.1632 25.0823 15.2425 25.0623L23.2425 23.0623C23.2938 23.05 23.344 23.0333 23.3925 23.0123L28.25 20.9448L28.305 20.9198C28.772 20.6865 29.1718 20.3381 29.4669 19.9075C29.7621 19.4769 29.9427 18.9783 29.9918 18.4586C30.041 17.9389 29.957 17.4153 29.7478 16.937C29.5387 16.4587 29.2112 16.0416 28.7962 15.7248H28.7913ZM5 23.0923H2V18.0923H5V23.0923ZM27.4287 19.1186L22.6787 21.1411L14.875 23.0923H7V17.5061L9.82875 14.6786C10.0138 14.4921 10.2341 14.3442 10.4768 14.2435C10.7195 14.1429 10.9798 14.0915 11.2425 14.0923H17.5C17.8978 14.0923 18.2794 14.2504 18.5607 14.5317C18.842 14.813 19 15.1945 19 15.5923C19 15.9902 18.842 16.3717 18.5607 16.653C18.2794 16.9343 17.8978 17.0923 17.5 17.0923H14C13.7348 17.0923 13.4804 17.1977 13.2929 17.3852C13.1054 17.5728 13 17.8271 13 18.0923C13 18.3576 13.1054 18.6119 13.2929 18.7994C13.4804 18.987 13.7348 19.0923 14 19.0923H18C18.0753 19.0921 18.1503 19.0837 18.2237 19.0673L26.5987 17.1411L26.6375 17.1311C26.8932 17.0601 27.166 17.0862 27.4036 17.2043C27.6412 17.3224 27.8267 17.5242 27.9245 17.7709C28.0222 18.0176 28.0253 18.2917 27.9331 18.5405C27.8409 18.7893 27.6599 18.9952 27.425 19.1186H27.4287ZM19.2925 5.79984C19.1995 5.70697 19.1258 5.59668 19.0754 5.47528C19.0251 5.35388 18.9992 5.22375 18.9992 5.09234C18.9992 4.96092 19.0251 4.8308 19.0754 4.7094C19.1258 4.588 19.1995 4.47771 19.2925 4.38484L23.2925 0.384839C23.3854 0.291863 23.4957 0.218104 23.6171 0.16778C23.7385 0.117455 23.8686 0.0915527 24 0.0915527C24.1314 0.0915527 24.2615 0.117455 24.3829 0.16778C24.5043 0.218104 24.6146 0.291863 24.7075 0.384839L28.7075 4.38484C28.8004 4.47775 28.8741 4.58805 28.9244 4.70944C28.9747 4.83084 29.0006 4.96094 29.0006 5.09234C29.0006 5.22373 28.9747 5.35384 28.9244 5.47524C28.8741 5.59663 28.8004 5.70693 28.7075 5.79984C28.6146 5.89275 28.5043 5.96645 28.3829 6.01673C28.2615 6.06702 28.1314 6.0929 28 6.0929C27.8686 6.0929 27.7385 6.06702 27.6171 6.01673C27.4957 5.96645 27.3854 5.89275 27.2925 5.79984L25 3.50609V11.0923C25 11.3576 24.8946 11.6119 24.7071 11.7994C24.5196 11.987 24.2652 12.0923 24 12.0923C23.7348 12.0923 23.4804 11.987 23.2929 11.7994C23.1054 11.6119 23 11.3576 23 11.0923V3.50609L20.7075 5.79984C20.6146 5.89282 20.5043 5.96657 20.3829 6.0169C20.2615 6.06722 20.1314 6.09313 20 6.09313C19.8686 6.09313 19.7385 6.06722 19.6171 6.0169C19.4957 5.96657 19.3854 5.89282 19.2925 5.79984Z" fill="url(#paint0_linear_9768_1049)"/>
<defs>
<linearGradient id="paint0_linear_9768_1049" x1="-0.600109" y1="4.67503" x2="37.2482" y2="9.02172" gradientUnits="userSpaceOnUse">
<stop stop-color="#D86C2C"/>
<stop offset="0.859156" stop-color="#F3A46B"/>
</linearGradient>
</defs>
</svg>
