<svg width="22" height="30" viewBox="0 0 22 30" fill="none" xmlns="http://www.w3.org/2000/svg">
<path d="M21.8366 26.3048C21.8327 26.2941 21.8281 26.2836 21.8228 26.2735L16.1378 14.166L18.7003 10.1435C18.7053 10.1363 18.7099 10.1288 18.7141 10.121C18.9005 9.81026 18.9989 9.45468 18.9989 9.09229C18.9989 8.72989 18.9005 8.37431 18.7141 8.06354C18.7028 8.04354 18.6891 8.02354 18.6766 8.00479L15.9991 4.17979V1.09229C15.9991 0.827069 15.8937 0.572715 15.7062 0.385178C15.5186 0.197642 15.2643 0.0922852 14.9991 0.0922852C14.7338 0.0922852 14.4795 0.197642 14.292 0.385178C14.1044 0.572715 13.9991 0.827069 13.9991 1.09229V4.14478L13.3416 4.96729C13.0605 5.31857 12.704 5.60214 12.2986 5.79701C11.8931 5.99189 11.4489 6.09307 10.9991 6.09307C10.5492 6.09307 10.1051 5.99189 9.69958 5.79701C9.29409 5.60214 8.93762 5.31857 8.65657 4.96729L7.99907 4.14478V1.09229C7.99907 0.827069 7.89371 0.572715 7.70617 0.385178C7.51864 0.197642 7.26428 0.0922852 6.99907 0.0922852C6.73385 0.0922852 6.4795 0.197642 6.29196 0.385178C6.10442 0.572715 5.99907 0.827069 5.99907 1.09229V4.17979L3.32157 8.00479C3.30907 8.02354 3.29532 8.04354 3.28407 8.06354C3.09766 8.37431 2.9992 8.72989 2.9992 9.09229C2.9992 9.45468 3.09766 9.81026 3.28407 10.121C3.28819 10.1288 3.29278 10.1363 3.29782 10.1435L5.86032 14.166L0.175315 26.2735C0.169984 26.2836 0.165389 26.2941 0.161565 26.3048C0.0312911 26.6089 -0.0214987 26.9406 0.00792544 27.2702C0.0373496 27.5997 0.148068 27.9168 0.330162 28.193C0.512255 28.4693 0.760035 28.696 1.0513 28.853C1.34256 29.0099 1.66821 29.0921 1.99907 29.0923H19.9991C20.33 29.0923 20.6558 29.0103 20.9473 28.8534C21.2387 28.6965 21.4866 28.4698 21.6689 28.1936C21.8511 27.9173 21.9619 27.6001 21.9914 27.2705C22.0209 26.9408 21.9681 26.609 21.8378 26.3048H21.8366ZM4.99907 9.09229L7.05282 6.16354L7.09407 6.21604C7.56248 6.80181 8.15668 7.27469 8.83265 7.59967C9.50862 7.92464 10.249 8.09338 10.9991 8.09338C11.7491 8.09338 12.4895 7.92464 13.1655 7.59967C13.8415 7.27469 14.4356 6.80181 14.9041 6.21604L14.9453 6.16354L16.9991 9.09229L14.4516 13.0923H7.54782L4.99907 9.09229ZM1.99907 27.0923L7.63282 15.0923H14.3628L19.9991 27.0923H1.99907Z" fill="url(#paint0_linear_9768_1044)"/>
<defs>
<linearGradient id="paint0_linear_9768_1044" x1="-0.439987" y1="5.40895" x2="27.5282" y2="7.43916" gradientUnits="userSpaceOnUse">
<stop stop-color="#D86C2C"/>
<stop offset="0.859156" stop-color="#F3A46B"/>
</linearGradient>
</defs>
</svg>
