<svg width="53" height="46" viewBox="0 0 53 46" fill="none" xmlns="http://www.w3.org/2000/svg">
<path d="M38.2188 0.467285C33.3789 0.467285 29.1414 2.54854 26.5 6.0665C23.8586 2.54854 19.6211 0.467285 14.7812 0.467285C10.9287 0.471628 7.2351 2.00399 4.5109 4.72819C1.7867 7.45238 0.254342 11.1459 0.25 14.9985C0.25 31.4048 24.5758 44.6845 25.6117 45.2329C25.8848 45.3798 26.19 45.4567 26.5 45.4567C26.81 45.4567 27.1152 45.3798 27.3883 45.2329C28.4242 44.6845 52.75 31.4048 52.75 14.9985C52.7457 11.1459 51.2133 7.45238 48.4891 4.72819C45.7649 2.00399 42.0713 0.471628 38.2188 0.467285ZM26.5 41.436C22.2203 38.9423 4 27.5821 4 14.9985C4.00372 12.1403 5.14079 9.40022 7.16186 7.37915C9.18294 5.35808 11.923 4.22101 14.7812 4.21729C19.3398 4.21729 23.1672 6.64541 24.7656 10.5454C24.9069 10.8893 25.1472 11.1834 25.456 11.3904C25.7648 11.5974 26.1282 11.708 26.5 11.708C26.8718 11.708 27.2352 11.5974 27.544 11.3904C27.8528 11.1834 28.0931 10.8893 28.2344 10.5454C29.8328 6.63838 33.6602 4.21729 38.2188 4.21729C41.077 4.22101 43.8171 5.35808 45.8381 7.37915C47.8592 9.40022 48.9963 12.1403 49 14.9985C49 27.5634 30.775 38.9399 26.5 41.436Z" fill="url(#paint0_linear_9759_986)"/>
<defs>
<linearGradient id="paint0_linear_9759_986" x1="-0.799999" y1="8.71533" x2="65.4696" y2="16.1153" gradientUnits="userSpaceOnUse">
<stop stop-color="#D86C2C"/>
<stop offset="0.859156" stop-color="#F3A46B"/>
</linearGradient>
</defs>
</svg>
