<svg width="30" height="26" viewBox="0 0 30 26" fill="none" xmlns="http://www.w3.org/2000/svg">
<path d="M29 23.0922H27V14.0922L27.2925 14.3847C27.4805 14.5724 27.7353 14.6777 28.0009 14.6774C28.2665 14.6772 28.5211 14.5715 28.7087 14.3835C28.8964 14.1955 29.0017 13.9407 29.0014 13.6751C29.0012 13.4095 28.8955 13.1549 28.7075 12.9672L16.4137 0.677242C16.0387 0.302453 15.5302 0.0919189 15 0.0919189C14.4698 0.0919189 13.9613 0.302453 13.5863 0.677242L1.2925 12.9672C1.10503 13.1549 0.999769 13.4093 0.999886 13.6746C1 13.9398 1.10548 14.1941 1.29312 14.3816C1.48077 14.5691 1.7352 14.6743 2.00044 14.6742C2.26569 14.6741 2.52003 14.5686 2.7075 14.381L3 14.0922V23.0922H1C0.734784 23.0922 0.48043 23.1976 0.292893 23.3851C0.105357 23.5727 0 23.827 0 24.0922C0 24.3575 0.105357 24.6118 0.292893 24.7993C0.48043 24.9869 0.734784 25.0922 1 25.0922H29C29.2652 25.0922 29.5196 24.9869 29.7071 24.7993C29.8946 24.6118 30 24.3575 30 24.0922C30 23.827 29.8946 23.5727 29.7071 23.3851C29.5196 23.1976 29.2652 23.0922 29 23.0922ZM5 12.0922L15 2.09224L25 12.0922V23.0922H19V16.0922C19 15.827 18.8946 15.5727 18.7071 15.3851C18.5196 15.1976 18.2652 15.0922 18 15.0922H12C11.7348 15.0922 11.4804 15.1976 11.2929 15.3851C11.1054 15.5727 11 15.827 11 16.0922V23.0922H5V12.0922ZM17 23.0922H13V17.0922H17V23.0922Z" fill="url(#paint0_linear_9768_1054)"/>
<defs>
<linearGradient id="paint0_linear_9768_1054" x1="-0.6" y1="4.67531" x2="37.2416" y2="9.02051" gradientUnits="userSpaceOnUse">
<stop stop-color="#D86C2C"/>
<stop offset="0.859156" stop-color="#F3A46B"/>
</linearGradient>
</defs>
</svg>
