<svg width="61" height="61" viewBox="0 0 61 61" fill="none" xmlns="http://www.w3.org/2000/svg">
<path d="M27.4375 28.2173C27.4375 27.661 27.6024 27.1173 27.9115 26.6547C28.2205 26.1922 28.6598 25.8317 29.1737 25.6189C29.6876 25.406 30.2531 25.3503 30.7987 25.4588C31.3443 25.5673 31.8454 25.8352 32.2387 26.2285C32.6321 26.6219 32.8999 27.123 33.0085 27.6686C33.117 28.2142 33.0613 28.7797 32.8484 29.2936C32.6355 29.8075 32.2751 30.2468 31.8125 30.5558C31.35 30.8648 30.8063 31.0298 30.25 31.0298C29.5041 31.0298 28.7887 30.7335 28.2613 30.206C27.7338 29.6786 27.4375 28.9632 27.4375 28.2173ZM19.9375 31.0298C20.4938 31.0298 21.0375 30.8648 21.5 30.5558C21.9626 30.2468 22.323 29.8075 22.5359 29.2936C22.7488 28.7797 22.8045 28.2142 22.696 27.6686C22.5874 27.123 22.3196 26.6219 21.9262 26.2285C21.5329 25.8352 21.0318 25.5673 20.4862 25.4588C19.9406 25.3503 19.3751 25.406 18.8612 25.6189C18.3473 25.8317 17.908 26.1922 17.599 26.6547C17.2899 27.1173 17.125 27.661 17.125 28.2173C17.125 28.9632 17.4213 29.6786 17.9488 30.206C18.4762 30.7335 19.1916 31.0298 19.9375 31.0298ZM40.5625 31.0298C41.1188 31.0298 41.6625 30.8648 42.125 30.5558C42.5876 30.2468 42.948 29.8075 43.1609 29.2936C43.3738 28.7797 43.4295 28.2142 43.321 27.6686C43.2124 27.123 42.9446 26.6219 42.5512 26.2285C42.1579 25.8352 41.6568 25.5673 41.1112 25.4588C40.5656 25.3503 40.0001 25.406 39.4862 25.6189C38.9723 25.8317 38.533 26.1922 38.224 26.6547C37.915 27.1173 37.75 27.661 37.75 28.2173C37.75 28.9632 38.0463 29.6786 38.5738 30.206C39.1012 30.7335 39.8166 31.0298 40.5625 31.0298ZM54.625 13.2173V43.2173C54.625 44.2118 54.2299 45.1657 53.5266 45.8689C52.8234 46.5722 51.8696 46.9673 50.875 46.9673H36.7117L33.5055 52.5782C33.1774 53.152 32.7035 53.6289 32.1318 53.9606C31.5601 54.2922 30.9109 54.4669 30.25 54.4669C29.5891 54.4669 28.9399 54.2922 28.3682 53.9606C27.7965 53.6289 27.3226 53.152 26.9945 52.5782L23.7883 46.9673H9.625C8.63044 46.9673 7.67661 46.5722 6.97335 45.8689C6.27009 45.1657 5.875 44.2118 5.875 43.2173V13.2173C5.875 12.2227 6.27009 11.2689 6.97335 10.5656C7.67661 9.86237 8.63044 9.46729 9.625 9.46729H50.875C51.8696 9.46729 52.8234 9.86237 53.5266 10.5656C54.2299 11.2689 54.625 12.2227 54.625 13.2173ZM50.875 13.2173H9.625V43.2173H24.8758C25.2078 43.2143 25.5346 43.2995 25.8228 43.4643C26.1111 43.629 26.3504 43.8673 26.5164 44.1548L30.2664 50.7173L34.0164 44.1548C34.1824 43.8673 34.4217 43.629 34.71 43.4643C34.9982 43.2995 35.3251 43.2143 35.657 43.2173H50.875V13.2173Z" fill="url(#paint0_linear_9759_977)"/>
<defs>
<linearGradient id="paint0_linear_9759_977" x1="4.9" y1="17.7172" x2="66.5409" y2="24.1072" gradientUnits="userSpaceOnUse">
<stop stop-color="#D86C2C"/>
<stop offset="0.859156" stop-color="#F3A46B"/>
</linearGradient>
</defs>
</svg>
