<svg width="25" height="27" viewBox="0 0 25 27" fill="none" xmlns="http://www.w3.org/2000/svg">
<path d="M24.615 0.209603C24.4952 0.116265 24.3557 0.0514346 24.2072 0.0200301C24.0586 -0.0113744 23.9048 -0.0085283 23.7575 0.0283526L7.75751 4.02835C7.54117 4.08243 7.34911 4.20726 7.21186 4.38302C7.07461 4.55877 7.00004 4.77536 7.00001 4.99835V18.7584C6.1658 18.201 5.16925 17.9384 4.16869 18.0122C3.16813 18.0861 2.22095 18.4922 1.47764 19.166C0.734328 19.8399 0.237518 20.7428 0.0661422 21.7313C-0.105233 22.7199 0.0586556 23.7373 0.53177 24.6221C1.00489 25.5068 1.76009 26.208 2.6774 26.6144C3.5947 27.0207 4.6215 27.1089 5.59464 26.8648C6.56779 26.6208 7.43147 26.0585 8.04846 25.2674C8.66546 24.4763 9.00038 23.5016 9.00001 22.4984V11.7796L23 8.2796V14.7584C22.1658 14.201 21.1692 13.9384 20.1687 14.0122C19.1681 14.0861 18.221 14.4922 17.4776 15.166C16.7343 15.8399 16.2375 16.7428 16.0661 17.7313C15.8948 18.7199 16.0587 19.7373 16.5318 20.6221C17.0049 21.5068 17.7601 22.208 18.6774 22.6144C19.5947 23.0207 20.6215 23.1089 21.5946 22.8648C22.5678 22.6208 23.4315 22.0585 24.0485 21.2674C24.6655 20.4763 25.0004 19.5016 25 18.4984V0.998353C25 0.846259 24.9654 0.696162 24.8987 0.559482C24.8319 0.422802 24.7349 0.30314 24.615 0.209603ZM4.50001 24.9984C4.00555 24.9984 3.5222 24.8517 3.11108 24.577C2.69996 24.3023 2.37953 23.9119 2.19031 23.4551C2.00109 22.9982 1.95158 22.4956 2.04804 22.0106C2.14451 21.5257 2.38261 21.0802 2.73224 20.7306C3.08187 20.381 3.52733 20.1429 4.01228 20.0464C4.49723 19.9499 4.9999 19.9994 5.45671 20.1887C5.91353 20.3779 6.30398 20.6983 6.57868 21.1094C6.85338 21.5205 7.00001 22.0039 7.00001 22.4984C7.00001 23.1614 6.73661 23.7973 6.26777 24.2661C5.79893 24.735 5.16305 24.9984 4.50001 24.9984ZM9.00001 9.7171V5.7796L23 2.2796V6.2171L9.00001 9.7171ZM20.5 20.9984C20.0056 20.9984 19.5222 20.8517 19.1111 20.577C18.7 20.3023 18.3795 19.9119 18.1903 19.4551C18.0011 18.9982 17.9516 18.4956 18.048 18.0106C18.1445 17.5257 18.3826 17.0802 18.7322 16.7306C19.0819 16.381 19.5273 16.1429 20.0123 16.0464C20.4972 15.9499 20.9999 15.9994 21.4567 16.1887C21.9135 16.3779 22.304 16.6983 22.5787 17.1094C22.8534 17.5205 23 18.0039 23 18.4984C23 19.1614 22.7366 19.7973 22.2678 20.2661C21.7989 20.735 21.163 20.9984 20.5 20.9984Z" fill="black"/>
</svg>
